<?xml version="1.0" encoding="utf-8"?><svg xmlns="http://www.w3.org/2000/svg" xmlns:xlink="http://www.w3.org/1999/xlink"><symbol viewBox="0 0 48 48" id="add-to-cart" xmlns="http://www.w3.org/2000/svg"><path d="M0 0h48v48H0zm36.62 12L31.1 22z" fill="none"/><path d="M22 18h4v-6h6V8h-6V2h-4v6h-6v4h6v6zm-8 18c-2.21 0-3.98 1.79-3.98 4s1.77 4 3.98 4 4-1.79 4-4-1.79-4-4-4zm20 0c-2.21 0-3.98 1.79-3.98 4s1.77 4 3.98 4 4-1.79 4-4-1.79-4-4-4zm-19.65-6.5c0-.09.02-.17.06-.24l1.8-3.26h14.9c1.5 0 2.81-.83 3.5-2.06l7.72-14.02L38.83 8h-.01l-2.21 4-5.51 10H17.07l-.26-.54L12.32 12l-1.9-4-1.89-4H2v4h4l7.2 15.17-2.71 4.9c-.31.58-.49 1.23-.49 1.93 0 2.21 1.79 4 4 4h24v-4H14.85c-.28 0-.5-.22-.5-.5z"/></symbol><symbol viewBox="0 0 96 96" id="arrow-right" xmlns="http://www.w3.org/2000/svg"><path d="M69.844 43.388L33.842 13.386a6.003 6.003 0 00-7.688 9.223L56.624 48l-30.47 25.39a6.003 6.003 0 007.688 9.223l36.002-30.001a6.01 6.01 0 000-9.223z"/></symbol><symbol viewBox="0 0 24 24" id="edit" xmlns="http://www.w3.org/2000/svg"><path d="M19.607 18.746c0 .881-.716 1.624-1.597 1.624H5.231c-.881 0-1.597-.743-1.597-1.624V5.967c0-.881.716-1.571 1.597-1.571h7.454V3.332H5.231c-1.468 0-2.662 1.168-2.662 2.636v12.778c0 1.468 1.194 2.688 2.662 2.688h12.778c1.468 0 2.662-1.221 2.662-2.688v-7.428h-1.065v7.428z"/><path d="M20.807 3.17c-.804-.805-2.207-.805-3.012 0l-7.143 7.143a.532.532 0 00-.14.247l-.752 3.011a.535.535 0 00.516.662.518.518 0 00.129-.016l3.012-.753a.527.527 0 00.247-.14l7.143-7.143c.402-.402.624-.937.624-1.506s-.221-1.103-.624-1.505zm-7.791 9.297l-2.008.502.502-2.008 5.909-5.909 1.506 1.506-5.909 5.909zm7.038-7.039l-.376.376-1.506-1.506.376-.376a1.091 1.091 0 011.506 0c.201.201.312.468.312.753s-.111.552-.312.753z"/></symbol><symbol viewBox="0 0 128 128" id="information" xmlns="http://www.w3.org/2000/svg"><path d="M64 0C28.656 0 0 28.656 0 64s28.656 64 64 64 64-28.656 64-64S99.344 0 64 0zm0 120C33.125 120 8 94.875 8 64S33.125 8 64 8s56 25.125 56 56-25.125 56-56 56z" fill="#B0BEC5"/><path d="M64 48c-4.414 0-8 3.586-8 8v40c0 4.414 3.586 8 8 8s8-3.586 8-8V56c0-4.414-3.586-8-8-8zm0-8c4.414 0 8-3.586 8-8s-3.586-8-8-8-8 3.586-8 8 3.586 8 8 8z" fill="#03A9F4"/></symbol><symbol viewBox="0 0 48 48" id="lock" xmlns="http://www.w3.org/2000/svg"><path d="M0 0h48v48H0z" fill="none"/><path d="M36 16h-2v-4c0-5.52-4.48-10-10-10S14 6.48 14 12v4h-2c-2.21 0-4 1.79-4 4v20c0 2.21 1.79 4 4 4h24c2.21 0 4-1.79 4-4V20c0-2.21-1.79-4-4-4zM24 34c-2.21 0-4-1.79-4-4s1.79-4 4-4 4 1.79 4 4-1.79 4-4 4zm6.2-18H17.8v-4c0-3.42 2.78-6.2 6.2-6.2 3.42 0 6.2 2.78 6.2 6.2v4z"/></symbol><symbol viewBox="0 0 880 784" id="logo" xmlns="http://www.w3.org/2000/svg"><path d="M409.5 107.5c-41.3 6.6-76.3 28-101.9 62.3-11.9 16-21 36.1-26.3 58.2-3.7 15.7-4.3 40.9-1.4 57.9 8.3 48.5 38.6 90.1 82.3 112.6 64.3 33.2 142.9 16.9 189.6-39.3 12.5-15.1 21-30.4 27.2-49.1 6.6-19.7 7.5-25.9 7.5-49.6 0-23.8-.9-29.9-7.6-50-17.7-53.4-66.1-94-122.5-102.9-12.1-1.9-35.3-2-46.9-.1zm48 11.1c20.4 3.4 44.2 13.5 60 25.4 23.6 17.7 42.4 43.2 51.4 69.7 5.9 17.2 7.5 26.9 7.5 46.3.1 9.6-.2 18.3-.6 19.3-.7 1.6-4.3 1.7-60 1.5l-59.3-.3-.3-6.3c-.6-13 4.7-23 15.3-28.8 3.6-2 12.8-5.1 22.7-7.8 9.2-2.5 19.6-5.9 23.2-7.5 7.3-3.3 14.9-9.8 17.6-15.1 2.2-4.3 4.3-14.5 3.8-18.5l-.3-3-37.5-.3c-49-.3-53.3.3-63.9 10.3l-4.7 4.4-4.1-4.2c-5.2-5.4-11.7-8.6-19.6-9.8-3.4-.5-23.2-.9-44.1-.9h-37.9l.5 7.9c1.1 19.3 10.6 27.5 42.1 36.1 26.3 7.2 31.7 10.2 36.6 20.3 3.1 6.3 5.9 19.2 4.8 22.1-.6 1.4-7 1.6-60.6 1.6H290l-.7-2.8c-1.4-5.4-.7-32.4 1.2-42.2 4.2-22.6 13.4-43.8 26.4-61 26.1-34.7 62.6-54.8 106.1-58.4 7.2-.6 25.8.5 34.5 2zm-43 87.3c2.4 1.1 6.9 4.9 10.9 9.5 3.8 4.2 7.1 7.6 7.5 7.5.3 0 3.3-3.2 6.6-7.1 10.2-12 9.1-11.8 52.3-11.8H528l-1.5 3.7c-3.8 9-11 12.9-35.9 19.7-25.9 7.1-34.4 12.5-40.7 26-3.9 8.4-5.4 18.7-4 28.5 1.9 14.3 8.5 31.2 17.7 45.7l3.7 5.7-5.7-.6c-7-.7-17-5.3-21.3-9.7-1.8-1.9-3.3-3.7-3.3-4.2 0-.4-1.6-.8-3.7-.8-3 0-4.2.7-7 4-3.8 4.4-13.5 9.5-20.2 10.6l-4.4.6 2.2-3.3c3.9-6.1 10.8-20.3 12.9-26.9 6.3-19.6 5.5-37-2.5-52.2-5.9-11.3-14.4-16.4-39.2-23.4-18-5.1-24.6-7.6-29.3-11-3.3-2.5-7.8-8.8-7.8-11.2 0-.9 7.9-1.2 36.3-1.2 32.9 0 36.6.2 40.2 1.9zm-5.5 86.5c0 2.2-4.9 15.3-7.8 21.1-4.8 9.5-12.2 19.6-14 19.1-.9-.3-3.5-.9-5.7-1.5-5.3-1.4-12.8-6.2-15.6-10-1.8-2.5-3-3.1-6-3.1-2.9 0-4 .6-5.5 2.7-2.4 3.8-3.9 4.9-11.2 8.5-4.2 2-8.4 3.2-12.8 3.6l-6.4.5v5.3c0 5.2.1 5.4 2.8 5.4 8.9-.1 23.9-5.3 30.2-10.7l3-2.5 3.5 2.7c17.5 13.3 48.3 13.7 65.1.9l4.6-3.5 3.4 2.6c8.4 6.4 21.6 10.5 33.9 10.5 10.8 0 25.6-4.9 32.5-10.6l2.9-2.5 4.3 3.4c5.8 4.4 13 7.4 20.9 8.6 10.2 1.7 9.9 1.9 9.9-4.3v-5.3l-6.3-.5c-8.7-.7-17.8-4.9-22.6-10.5-5.2-5.9-7.8-5.8-14 .5-4.3 4.5-13.3 9.2-17.6 9.2-2.8 0-15-20.5-19.5-32.9l-3-8.1h115.9l-2.4 8.7c-4.1 15.2-12.1 31.9-22.3 46.3-7.1 10.1-24.6 26.8-35.9 34.3-23.3 15.6-46.8 23.2-74.8 24.4-57.5 2.4-109.1-28.2-135.2-80.1-4.5-9-11.3-28-11.3-31.7 0-1.9 1.2-1.9 58.5-1.9 50.3 0 58.5.2 58.5 1.4zm-125.6 174c-.3.8-.4 2.5-.2 3.8l.3 2.3h148.9c140.7 0 148.9-.1 150-1.8.8-1.2.8-2.2 0-3.5-1.1-1.6-9.4-1.7-149.8-2-128.2-.2-148.7 0-149.2 1.2zM492 616.5V711h26V594.7l3.7-3.4c2-1.9 4.7-3.9 6-4.4 3.3-1.2 9-1.1 11.5.2 4.7 2.5 4.8 4 4.8 65.9v58h27.1l-.4-60.8c-.3-65.4-.3-64.6-5.8-73.3-8.4-13.2-30.9-13.8-44.1-1.2l-3.6 3.5.5-28.6.6-28.6H492v94.5zM122.7 533c-20.1 3.4-31.7 17.9-31.7 39.3 0 9.9 1.8 16.9 6.5 26.2 3.9 7.8 5.9 10.3 27 35.5 17.4 20.8 21.4 27.7 22.1 39.1.6 8.6-1.1 12.9-6.6 16.6-4.5 3.1-12.9 3.2-17.8.1-5.6-3.5-7.6-9.1-8-23.6l-.4-12.3-10.6.3-10.7.3-1.2 6.5c-2.5 13.6-1 26.7 4 35.3 5.3 8.9 14.5 14.2 27.7 15.7 22.4 2.6 39.1-5.3 46.8-21.8 2.2-4.8 2.7-7.5 3-16.4.8-19.9-4.2-29.6-32.2-63.5-9.9-11.9-19.3-24-20.8-26.9-4-7.4-4.8-16.5-1.9-22.2 2.9-5.6 5.8-7.4 12.5-7.4 7.4-.1 11.4 2.3 14.6 8.7 2 4.2 2.5 6.9 3 16.5l.5 11.5h20.9l1.3-7c.8-4.1 1.2-10.8 1-16.1-.5-10.2-3-17.3-8.5-23.5-8-9.1-24.6-13.5-40.5-10.9zm73.3 89.5V711h27V534h-27v88.5zm57 0V711h27v-54h5.8c18.9-.1 33.8-8.4 41.2-23 5.1-10.2 7.1-19.6 7.7-37 .9-24.9-2.8-38.8-13.4-50.1-9.4-10.1-19.8-12.9-48.5-12.9H253v88.5zm40.7-67.4c4.5 1.4 8 4.5 10.6 9.2 2.1 4 2.2 5.3 2.2 29.2 0 24-.1 25.2-2.3 30-1.3 2.7-3.3 6.1-4.5 7.4-3.2 3.5-9.5 6.1-14.9 6.1H280v-41.3c0-22.8.3-41.7.6-42 .8-.8 8.7.1 13.1 1.4zM429 567c-24.9 3.2-35.6 26.8-23.6 52.4 4 8.5 8.8 15.2 25.7 35.3 7 8.3 13.4 16.4 14.2 18 3.6 6.8 3 13-1.4 17.2-2.6 2.4-10.7 2.9-14.9.8-3.9-1.9-6.8-8.8-7.6-17.8l-.7-7.9h-8.9c-8.6 0-8.9.1-9.8 2.6-.6 1.5-1.3 6-1.7 10-2 24.1 14.2 37.6 41.2 34.3 19.6-2.4 30.5-15.3 29.3-34.8-.9-14.2-5.4-22.1-26.8-47.2-16.3-19.2-20.5-26.3-19.7-33.6.7-6.6 4.8-10.3 11.5-10.3 8.3 0 11.4 5.2 12.8 21.2l.6 6.8h17.6l1.1-5c1.5-6.9 1.3-19.7-.3-24.3-1.8-4.9-6.1-10.4-10-12.8-6.5-4.1-18.9-6.2-28.6-4.9zm197.3.1c-11.8 1.5-19.4 7.1-24.7 18.2-6.1 12.7-7.1 20.2-7.1 53.7 0 24.6.3 30.9 1.8 37.8 4.9 22.6 13.9 33 30.4 35.1 14.4 1.8 25-1.5 32.7-9.9 5.2-5.8 8-11.6 10.8-21.9 1.8-6.6 2.2-11.3 2.6-36.4.4-31-.3-39.8-4.2-52.3-6.2-19.3-19.9-27.2-42.3-24.3zm14.1 21c1.6 1.2 3.3 4.2 4.3 7.7 1.6 5 1.8 10.2 1.8 43.2s-.2 38.2-1.8 43.2c-2.1 6.8-5.3 9.8-10.8 9.8-5.7 0-9.5-3.9-11.4-11.7-1.4-5.3-1.6-12.4-1.3-44 .3-34.3.5-38.2 2.2-42.1 1-2.3 3-5.1 4.4-6.2 3.3-2.6 9.2-2.6 12.6.1zM741.5 567c-7.9 1.4-15.8 6.3-19.2 12.1-1 1.6-2 2.9-2.4 2.9-.4 0-1-2.4-1.4-5.3-1.2-9.3-.4-8.7-11.6-8.7H697v189h26.3l-.5-27.5-.4-27.4 3.9 3.5c5.5 5 9.8 6.5 18.2 6.6 15.5 0 24.6-8.7 29.2-28.2 1.1-4.8 1.7-14.7 2-37.8.5-33.4-.3-46.5-3.8-57.7-4.8-15.7-16.3-23.8-30.4-21.5zm.6 20c1 .6 2.9 3 4.1 5.3 2.3 4.2 2.3 4.5 2.3 46.7 0 39.5-.1 42.7-1.9 46-1 1.9-2.8 4.3-4 5.2-3 2.5-10.1 2.3-13.7-.3-6-4.2-5.9-3.7-5.9-51.8v-44l3.8-4.1c3.5-3.6 4.4-4 8.6-4 2.6 0 5.6.5 6.7 1zm-381.6 85.7c-6.9 1.8-10.5 8.5-10.5 19.6.1 13.3 5.2 19.7 15.9 19.7 7.3 0 11.2-2.5 14.1-9.2 1.8-4.3 2.2-6.5 1.8-12.4-.9-14-9-20.7-21.3-17.7z"/></symbol><symbol viewBox="0 0 312 312" id="logo-only-icon" xmlns="http://www.w3.org/2000/svg"><path d="M132.5 2.5c-41.3 6.6-76.3 28-101.9 62.3-11.9 16-21 36.1-26.3 58.2-3.7 15.7-4.3 40.9-1.4 57.9 8.3 48.5 38.6 90.1 82.3 112.6 64.3 33.2 142.9 16.9 189.6-39.3 12.5-15.1 21-30.4 27.2-49.1 6.6-19.7 7.5-25.9 7.5-49.6 0-23.8-.9-29.9-7.6-50-17.7-53.4-66.1-94-122.5-102.9-12.1-1.9-35.3-2-46.9-.1zm48 11.1c20.4 3.4 44.2 13.5 60 25.4 23.6 17.7 42.4 43.2 51.4 69.7 5.9 17.2 7.5 26.9 7.5 46.3.1 9.6-.2 18.3-.6 19.3-.7 1.6-4.3 1.7-60 1.5l-59.3-.3-.3-6.3c-.6-13 4.7-23 15.3-28.8 3.6-2 12.8-5.1 22.7-7.8 9.2-2.5 19.6-5.9 23.2-7.5 7.3-3.3 14.9-9.8 17.6-15.1 2.2-4.3 4.3-14.5 3.8-18.5l-.3-3-37.5-.3c-49-.3-53.3.3-63.9 10.3l-4.7 4.4-4.1-4.2c-5.2-5.4-11.7-8.6-19.6-9.8-3.4-.5-23.2-.9-44.1-.9H49.7l.5 7.9c1.1 19.3 10.6 27.5 42.1 36.1 26.3 7.2 31.7 10.2 36.6 20.3 3.1 6.3 5.9 19.2 4.8 22.1-.6 1.4-7 1.6-60.6 1.6H13l-.7-2.8c-1.4-5.4-.7-32.4 1.2-42.2 4.2-22.6 13.4-43.8 26.4-61C66 35.3 102.5 15.2 146 11.6c7.2-.6 25.8.5 34.5 2zm-43 87.3c2.4 1.1 6.9 4.9 10.9 9.5 3.8 4.2 7.1 7.6 7.5 7.5.3 0 3.3-3.2 6.6-7.1 10.2-12 9.1-11.8 52.3-11.8H251l-1.5 3.7c-3.8 9-11 12.9-35.9 19.7-25.9 7.1-34.4 12.5-40.7 26-3.9 8.4-5.4 18.7-4 28.5 1.9 14.3 8.5 31.2 17.7 45.7l3.7 5.7-5.7-.6c-7-.7-17-5.3-21.3-9.7-1.8-1.9-3.3-3.7-3.3-4.2 0-.4-1.6-.8-3.7-.8-3 0-4.2.7-7 4-3.8 4.4-13.5 9.5-20.2 10.6l-4.4.6 2.2-3.3c3.9-6.1 10.8-20.3 12.9-26.9 6.3-19.6 5.5-37-2.5-52.2-5.9-11.3-14.4-16.4-39.2-23.4-18-5.1-24.6-7.6-29.3-11-3.3-2.5-7.8-8.8-7.8-11.2 0-.9 7.9-1.2 36.3-1.2 32.9 0 36.6.2 40.2 1.9zm-5.5 86.5c0 2.2-4.9 15.3-7.8 21.1-4.8 9.5-12.2 19.6-14 19.1-.9-.3-3.5-.9-5.7-1.5-5.3-1.4-12.8-6.2-15.6-10-1.8-2.5-3-3.1-6-3.1-2.9 0-4 .6-5.5 2.7-2.4 3.8-3.9 4.9-11.2 8.5-4.2 2-8.4 3.2-12.8 3.6l-6.4.5v5.3c0 5.2.1 5.4 2.8 5.4 8.9-.1 23.9-5.3 30.2-10.7l3-2.5 3.5 2.7c17.5 13.3 48.3 13.7 65.1.9l4.6-3.5 3.4 2.6c8.4 6.4 21.6 10.5 33.9 10.5 10.8 0 25.6-4.9 32.5-10.6l2.9-2.5 4.3 3.4c5.8 4.4 13 7.4 20.9 8.6 10.2 1.7 9.9 1.9 9.9-4.3v-5.3l-6.3-.5c-8.7-.7-17.8-4.9-22.6-10.5-5.2-5.9-7.8-5.8-14 .5-4.3 4.5-13.3 9.2-17.6 9.2-2.8 0-15-20.5-19.5-32.9l-3-8.1h115.9l-2.4 8.7c-4.1 15.2-12.1 31.9-22.3 46.3-7.1 10.1-24.6 26.8-35.9 34.3-23.3 15.6-46.8 23.2-74.8 24.4-57.5 2.4-109.1-28.2-135.2-80.1-4.5-9-11.3-28-11.3-31.7 0-1.9 1.2-1.9 58.5-1.9 50.3 0 58.5.2 58.5 1.4z"/></symbol><symbol viewBox="0 0 32 32" id="order" xmlns="http://www.w3.org/2000/svg"><path d="M31.01 9c0 .55-.45 1-1 1H1.99c-.36 0-.69-.19-.87-.5-.17-.31-.17-.69 0-1l4-7c.18-.31.51-.5.87-.5h20c.36 0 .69.19.87.5l3.91 6.85a1 1 0 01.24.65z" fill="#4391B2"/><path d="M30.99 9v21c0 .55-.45 1-1 1h-28c-.55 0-1-.45-1-1V9h30z" fill="#48B1DD"/><path d="M21 9v10c0 .38-.21.73-.55.89-.14.08-.3.11-.45.11-.21 0-.42-.07-.6-.2L16 17.25l-3.4 2.55c-.3.23-.71.26-1.05.09A.977.977 0 0111 19V9c.01-.09.03-.18.04-.27L13.25 1h5.5l2.21 7.73c.01.09.03.18.04.27z" fill="#96CEE5"/></symbol><symbol viewBox="0 0 1792 1792" id="questen-mark" xmlns="http://www.w3.org/2000/svg"><path d="M1088 1256v240q0 16-12 28t-28 12H808q-16 0-28-12t-12-28v-240q0-16 12-28t28-12h240q16 0 28 12t12 28zm316-600q0 54-15.5 101t-35 76.5-55 59.5-57.5 43.5-61 35.5q-41 23-68.5 65t-27.5 67q0 17-12 32.5t-28 15.5H804q-15 0-25.5-18.5T768 1096v-45q0-83 65-156.5T976 786q59-27 84-56t25-76q0-42-46.5-74T931 548q-65 0-108 29-35 25-107 115-13 16-31 16-12 0-25-8L496 575q-13-10-15.5-25t5.5-28q160-266 464-266 80 0 161 31t146 83 106 127.5 41 158.5z"/></symbol><symbol viewBox="0 0 32 32" id="search" xmlns="http://www.w3.org/2000/svg"><path class="jcls-1" d="M11 22a10 10 0 1110-10 10 10 0 01-10 10zm0-18a8 8 0 108 8 8 8 0 00-8-8zm17 25.74a3 3 0 01-1.93-.7l-6.13-5.14a3 3 0 013.86-4.6l6.13 5.14a3 3 0 01-1.93 5.3zm-6.13-9.14h-.09a1 1 0 00-.55 1.77l6.13 5.14a1 1 0 001.41-.12 1 1 0 00.23-.73 1 1 0 00-.36-.68l-6.13-5.15a1 1 0 00-.64-.23z"/><path class="jcls-1" d="M20 21a1 1 0 01-.64-.23L17 18.82a1 1 0 011.28-1.54l2.34 1.95a1 1 0 01.13 1.41A1 1 0 0120 21z"/></symbol><symbol viewBox="0 0 20 20" id="shopping-cart" xmlns="http://www.w3.org/2000/svg"><path d="M6 16c-1.1 0-2 .9-2 2s.9 2 2 2 2-.9 2-2-.9-2-2-2zM0 0v2h2l3.6 7.6L4.2 12c-.1.3-.2.7-.2 1 0 1.1.9 2 2 2h12v-2H6.4c-.1 0-.2-.1-.2-.2v-.1l.9-1.7h7.4c.8 0 1.4-.4 1.7-1l3.6-6.5c.2-.2.2-.3.2-.5 0-.6-.4-1-1-1H4.2l-.9-2H0zm16 16c-1.1 0-2 .9-2 2s.9 2 2 2 2-.9 2-2-.9-2-2-2z" fill-rule="evenodd"/></symbol><symbol viewBox="0 0 32 32" id="trash" xmlns="http://www.w3.org/2000/svg"><path d="M29.98 6.819A2.99 2.99 0 0027 4.003h-3V3.001a3 3 0 00-3-3H11a3 3 0 00-3 3v1.001H5a2.99 2.99 0 00-2.981 2.816H2v2.183a2 2 0 002 2v17a4 4 0 004 4h16a4 4 0 004-4v-17a2 2 0 002-2V6.819h-.02zM10 3.002a1 1 0 011-1h10a1 1 0 011 1v1H10v-1zm16 25c0 1.102-.898 2-2 2H8c-1.103 0-2-.898-2-2v-17h20v17zm2-20.001v1H4V7.002a1 1 0 011-1h22a1 1 0 011 1v.999z"/><path d="M9 28.006h2a1 1 0 001-1v-13a1 1 0 00-1-1H9a1 1 0 00-1 1v13a1 1 0 001 1zm0-14.001h2v13H9v-13zm6 14.001h2a1 1 0 001-1v-13a1 1 0 00-1-1h-2a1 1 0 00-1 1v13a1 1 0 001 1zm0-14.001h2v13h-2v-13zm6 14.001h2a1 1 0 001-1v-13a1 1 0 00-1-1h-2a1 1 0 00-1 1v13a1 1 0 001 1zm0-14.001h2v13h-2v-13z"/></symbol><symbol viewBox="0 0 24 24" id="user-icon" xmlns="http://www.w3.org/2000/svg"><ellipse cx="12" cy="8" rx="5" ry="6"/><path d="M21.8 19.1c-.9-1.8-2.6-3.3-4.8-4.2-.6-.2-1.3-.2-1.8.1-1 .6-2 .9-3.2.9s-2.2-.3-3.2-.9c-.5-.2-1.2-.3-1.8 0-2.2.9-3.9 2.4-4.8 4.2-.7 1.3.4 2.8 1.9 2.8h15.8c1.5 0 2.6-1.5 1.9-2.9z"/></symbol></svg>