<!-- ITCSS Nuxt.js Layers by cietho <thomas@cieslar.io> -->
<svg viewBox="0 0 1920 1080" xmlns="http://www.w3.org/2000/svg" fill-rule="evenodd" clip-rule="evenodd" stroke-linecap="round" stroke-linejoin="round" stroke-miterlimit="1.5"><path d="M540 1080L0 0h1080L540 1080zM1076.764 2H3.24L540 1075.528 1076.764 2z"/><g fill="none" stroke="#000" stroke-width="2"><path d="M60.056 120.111h959.884M120.111 240.222h839.778M180.167 360.333H900M239.722 479.444l600.278 1M300 600.556h479.722M360.333 720.667H720M420 839.778l240 1M480 960.889h120"/></g><path d="M1020 120.111l900 1M960 241.222h960M900 360.333h1020M840 480.444l1080 1M780 601h1140M720 720.667h1200M660 841.778l1260-1M600 960.889h1320M540 1079h1380M1080 2h840" fill="none" stroke="#000" stroke-width="2" stroke-dasharray="20,20,0,0"/><text x="1639.9" y="78.29" font-family="'NotoSans-Bold','Noto Sans',sans-serif" font-weight="700" font-size="48">SET<tspan x="1721.49" y="78.29">T</tspan>INGS</text><text x="1710.89" y="78.29" font-family="'NotoSans-Bold','Noto Sans',sans-serif" font-weight="700" font-size="48" transform="translate(0 119.111)">T<tspan x="1738.22" y="78.29">O</tspan>OLS</text><text x="1659.68" y="78.29" font-family="'NotoSans-Bold','Noto Sans',sans-serif" font-weight="700" font-size="48" transform="translate(0 239.222)">GENERIC</text><g><text x="1621.9" y="78.29" font-family="'NotoSans-Bold','Noto Sans',sans-serif" font-weight="700" font-size="48" transform="translate(0 359.333)">ELEMENTS</text></g><g><text x="1670.14" y="78.29" font-family="'NotoSans-Bold','Noto Sans',sans-serif" font-weight="700" font-size="48" transform="translate(0 479.444)">OBJECTS</text></g><g><text x="1651.15" y="78.29" font-family="'NotoSans-Bold','Noto Sans',sans-serif" font-weight="700" font-size="48" transform="translate(0 599.556)">LA<tspan x="1709.98px 1739.46px" y="78.29px 78.29px">YO</tspan>UTS</text></g><g><text x="1718.49" y="78.29" font-family="'NotoSans-Bold','Noto Sans',sans-serif" font-weight="700" font-size="48" transform="translate(0 719.667)">P<tspan x="1747.46px 1780.11px" y="78.29px 78.29px">AG</tspan>ES</text></g><g><text x="1527.1" y="78.29" font-family="'NotoSans-Bold','Noto Sans',sans-serif" font-weight="700" font-size="48" transform="translate(0 840.778)">C<tspan x="1557.21" y="78.29">O</tspan>MPONENTS</text></g><g><text x="1639.83" y="78.29" font-family="'NotoSans-Bold','Noto Sans',sans-serif" font-weight="700" font-size="48" transform="translate(0 960.889)">UTILITIES</text></g><g><g fill-rule="nonzero"><path d="M548.176 640.013l-4.008 6.941-13.71-23.745-42.084 72.883h28.494a6.941 6.941 0 006.941 6.942h-35.435a6.94 6.94 0 01-6.01-10.412l42.085-72.883a6.94 6.94 0 0112.023 0l11.704 20.274z" fill="#00c58e"/><path d="M578.556 692.622l-26.371-45.668-4.009-6.941-4.008 6.941-26.368 45.668a6.94 6.94 0 006.01 10.412h48.727a6.942 6.942 0 006.013-10.412h.006zm-54.747 3.47l24.367-42.197 24.361 42.197H523.81z" fill="#2f495e"/><path d="M597.41 699.563a6.94 6.94 0 01-6.01 3.47h-18.863a6.941 6.941 0 006.942-6.94h11.907l-33.787-58.518-5.414 9.38-4.009-6.942 3.413-5.91a6.941 6.941 0 0112.023 0l33.798 58.519a6.94 6.94 0 010 6.941z" fill="#108775"/></g></g><g><g fill-rule="nonzero"><path d="M548.176 760.919l-4.008 6.941-13.71-23.745-42.084 72.883h28.494a6.941 6.941 0 006.941 6.942h-35.435a6.94 6.94 0 01-6.01-10.412l42.085-72.883a6.94 6.94 0 0112.023 0l11.704 20.274z" fill="#00c58e"/><path d="M578.556 813.528l-26.371-45.668-4.009-6.941-4.008 6.941-26.368 45.668a6.94 6.94 0 006.01 10.412h48.727a6.942 6.942 0 006.013-10.412h.006zm-54.747 3.47l24.367-42.197 24.361 42.197H523.81z" fill="#2f495e"/><path d="M597.41 820.47a6.94 6.94 0 01-6.01 3.47h-18.863a6.941 6.941 0 006.942-6.942h11.907l-33.787-58.517-5.414 9.38-4.009-6.942 3.413-5.91a6.941 6.941 0 0112.023 0l33.798 58.519a6.94 6.94 0 010 6.941z" fill="#108775"/></g></g><g><g fill-rule="nonzero"><path d="M548.176 880.59l-4.008 6.942-13.71-23.745-42.084 72.883h28.494a6.941 6.941 0 006.941 6.942h-35.435a6.94 6.94 0 01-6.01-10.412l42.085-72.883a6.94 6.94 0 0112.023 0l11.704 20.274z" fill="#00c58e"/><path d="M578.556 933.2l-26.371-45.668-4.009-6.941-4.008 6.941L517.8 933.2a6.94 6.94 0 006.01 10.412h48.727a6.942 6.942 0 006.013-10.412h.006zm-54.747 3.47l24.367-42.197 24.361 42.197H523.81z" fill="#2f495e"/><path d="M597.41 940.141a6.94 6.94 0 01-6.01 3.47h-18.863a6.941 6.941 0 006.942-6.94h11.907l-33.787-58.518-5.414 9.38-4.009-6.942 3.413-5.91a6.941 6.941 0 0112.023 0L597.41 933.2a6.94 6.94 0 010 6.941z" fill="#108775"/></g></g></svg>
