<svg version="1.0" xmlns="http://www.w3.org/2000/svg" width="416" height="416" viewBox="0 0 312 312"><path d="M132.5 2.5c-41.3 6.6-76.3 28-101.9 62.3-11.9 16-21 36.1-26.3 58.2-3.7 15.7-4.3 40.9-1.4 57.9 8.3 48.5 38.6 90.1 82.3 112.6 64.3 33.2 142.9 16.9 189.6-39.3 12.5-15.1 21-30.4 27.2-49.1 6.6-19.7 7.5-25.9 7.5-49.6 0-23.8-.9-29.9-7.6-50-17.7-53.4-66.1-94-122.5-102.9-12.1-1.9-35.3-2-46.9-.1zm48 11.1c20.4 3.4 44.2 13.5 60 25.4 23.6 17.7 42.4 43.2 51.4 69.7 5.9 17.2 7.5 26.9 7.5 46.3.1 9.6-.2 18.3-.6 19.3-.7 1.6-4.3 1.7-60 1.5l-59.3-.3-.3-6.3c-.6-13 4.7-23 15.3-28.8 3.6-2 12.8-5.1 22.7-7.8 9.2-2.5 19.6-5.9 23.2-7.5 7.3-3.3 14.9-9.8 17.6-15.1 2.2-4.3 4.3-14.5 3.8-18.5l-.3-3-37.5-.3c-49-.3-53.3.3-63.9 10.3l-4.7 4.4-4.1-4.2c-5.2-5.4-11.7-8.6-19.6-9.8-3.4-.5-23.2-.9-44.1-.9H49.7l.5 7.9c1.1 19.3 10.6 27.5 42.1 36.1 26.3 7.2 31.7 10.2 36.6 20.3 3.1 6.3 5.9 19.2 4.8 22.1-.6 1.4-7 1.6-60.6 1.6H13l-.7-2.8c-1.4-5.4-.7-32.4 1.2-42.2 4.2-22.6 13.4-43.8 26.4-61C66 35.3 102.5 15.2 146 11.6c7.2-.6 25.8.5 34.5 2zm-43 87.3c2.4 1.1 6.9 4.9 10.9 9.5 3.8 4.2 7.1 7.6 7.5 7.5.3 0 3.3-3.2 6.6-7.1 10.2-12 9.1-11.8 52.3-11.8H251l-1.5 3.7c-3.8 9-11 12.9-35.9 19.7-25.9 7.1-34.4 12.5-40.7 26-3.9 8.4-5.4 18.7-4 28.5 1.9 14.3 8.5 31.2 17.7 45.7l3.7 5.7-5.7-.6c-7-.7-17-5.3-21.3-9.7-1.8-1.9-3.3-3.7-3.3-4.2 0-.4-1.6-.8-3.7-.8-3 0-4.2.7-7 4-3.8 4.4-13.5 9.5-20.2 10.6l-4.4.6 2.2-3.3c3.9-6.1 10.8-20.3 12.9-26.9 6.3-19.6 5.5-37-2.5-52.2-5.9-11.3-14.4-16.4-39.2-23.4-18-5.1-24.6-7.6-29.3-11-3.3-2.5-7.8-8.8-7.8-11.2 0-.9 7.9-1.2 36.3-1.2 32.9 0 36.6.2 40.2 1.9zm-5.5 86.5c0 2.2-4.9 15.3-7.8 21.1-4.8 9.5-12.2 19.6-14 19.1-.9-.3-3.5-.9-5.7-1.5-5.3-1.4-12.8-6.2-15.6-10-1.8-2.5-3-3.1-6-3.1-2.9 0-4 .6-5.5 2.7-2.4 3.8-3.9 4.9-11.2 8.5-4.2 2-8.4 3.2-12.8 3.6l-6.4.5v5.3c0 5.2.1 5.4 2.8 5.4 8.9-.1 23.9-5.3 30.2-10.7l3-2.5 3.5 2.7c17.5 13.3 48.3 13.7 65.1.9l4.6-3.5 3.4 2.6c8.4 6.4 21.6 10.5 33.9 10.5 10.8 0 25.6-4.9 32.5-10.6l2.9-2.5 4.3 3.4c5.8 4.4 13 7.4 20.9 8.6 10.2 1.7 9.9 1.9 9.9-4.3v-5.3l-6.3-.5c-8.7-.7-17.8-4.9-22.6-10.5-5.2-5.9-7.8-5.8-14 .5-4.3 4.5-13.3 9.2-17.6 9.2-2.8 0-15-20.5-19.5-32.9l-3-8.1h115.9l-2.4 8.7c-4.1 15.2-12.1 31.9-22.3 46.3-7.1 10.1-24.6 26.8-35.9 34.3-23.3 15.6-46.8 23.2-74.8 24.4-57.5 2.4-109.1-28.2-135.2-80.1-4.5-9-11.3-28-11.3-31.7 0-1.9 1.2-1.9 58.5-1.9 50.3 0 58.5.2 58.5 1.4z"/></svg>