<svg viewBox="0 0 32 32" xmlns="http://www.w3.org/2000/svg">
  <path
    d="M31.01 9c0 .55-.45 1-1 1H1.99c-.36 0-.69-.19-.87-.5-.17-.31-.17-.69 0-1l4-7c.18-.31.51-.5.87-.5h20c.36 0 .69.19.87.5l3.91 6.85a1 1 0 01.24.65z"
    fill="#4391B2"/>
  <path d="M30.99 9v21c0 .55-.45 1-1 1h-28c-.55 0-1-.45-1-1V9h30z" fill="#48B1DD"/>
  <path
    d="M21 9v10c0 .38-.21.73-.55.89-.14.08-.3.11-.45.11-.21 0-.42-.07-.6-.2L16 17.25l-3.4 2.55c-.3.23-.71.26-1.05.09A.977.977 0 0111 19V9c.01-.09.03-.18.04-.27L13.25 1h5.5l2.21 7.73c.01.09.03.18.04.27z"
    fill="#96CEE5"/>
</svg>
