<svg viewBox="0 0 32 32" xmlns="http://www.w3.org/2000/svg">
    <path class="cls-1"
          d="M11 22a10 10 0 1110-10 10 10 0 01-10 10zm0-18a8 8 0 108 8 8 8 0 00-8-8zM28 29.74a3 3 0 01-1.93-.7l-6.13-5.14a3 3 0 013.86-4.6l6.13 5.14a3 3 0 01-1.93 5.3zm-6.13-9.14h-.09a1 1 0 00-.55 1.77l6.13 5.14a1 1 0 001.41-.12 1 1 0 00.23-.73 1 1 0 00-.36-.68l-6.13-5.15a1 1 0 00-.64-.23z"/>
    <path class="cls-1"
          d="M20 21a1 1 0 01-.64-.23L17 18.82a1 1 0 011.28-1.54l2.34 1.95a1 1 0 01.13 1.41A1 1 0 0120 21z"/>
</svg>
